<?xml version="1.0" encoding="UTF-8" standalone="no"?>
<!-- Created with Inkscape (http://www.inkscape.org/) -->

<svg
   width="430"
   height="430"
   viewBox="0 0 113.77083 113.77083"
   version="1.1"
   id="svg1"
   xml:space="preserve"
   xmlns="http://www.w3.org/2000/svg"
   xmlns:svg="http://www.w3.org/2000/svg"><defs
     id="defs1"><filter
       style="color-interpolation-filters:sRGB"
       id="filter2"
       x="-0.090578233"
       y="-0.089291002"
       width="1.2566383"
       height="1.2529912"><feFlood
         result="flood"
         in="SourceGraphic"
         flood-opacity="0.498039"
         flood-color="rgb(0,0,0)"
         id="feFlood1" /><feGaussianBlur
         result="blur"
         in="SourceGraphic"
         stdDeviation="3.000000"
         id="feGaussianBlur1" /><feOffset
         result="offset"
         in="blur"
         dx="6.000000"
         dy="6.000000"
         id="feOffset1" /><feComposite
         result="comp1"
         operator="in"
         in="flood"
         in2="offset"
         id="feComposite1" /><feComposite
         result="comp2"
         operator="over"
         in="SourceGraphic"
         in2="comp1"
         id="feComposite2" /></filter></defs><g
     id="layer1"
     style="display:inline;fill:#ff6600"><path
       style="display:inline;fill:#2a477e;fill-opacity:0.996078;stroke-width:0.264583;stroke-opacity:0.997746"
       id="rect1"
       width="113.77083"
       height="113.77083"
       x="0"
       y="0"
       d="m 26.458332,0 h 60.854164 c 14.657914,0 26.458334,11.800416 26.458334,26.458332 v 60.854164 c 0,14.657914 -11.80042,26.458334 -26.458334,26.458334 H 26.458332 C 11.800416,113.77083 0,101.97041 0,87.312496 V 26.458332 C 0,11.800416 11.800416,0 26.458332,0 Z"
       rx="26.458332" /></g><g
     id="layer3"
     style="fill:#000000"><circle
       style="fill:#2a467d;fill-opacity:0.996078;stroke-width:0.529166;stroke-opacity:0.997746"
       id="path2"
       cx="56.885414"
       cy="56.885414"
       r="56.885418" /></g><g
     id="layer2"
     style="display:inline;fill:#000000"><g
       id="g1"
       transform="matrix(0.90932791,0,0,0.88990164,4.7987369,9.6024213)"><path
         style="display:inline;fill:#08123c;fill-opacity:0.996078;stroke-width:0.264583;stroke-opacity:0.997746;filter:url(#filter2)"
         d="m 17.872058,21.141019 1.847501,-0.467721 2.291836,-0.584652 3.227278,-0.748355 2.619243,-0.53788 3.110349,-0.561266 2.853102,-0.491108 2.525697,-0.444335 2.642627,-0.327405 2.245063,-0.327406 3.110349,-0.304019 4.162724,-0.304019 3.390982,-0.233861 2.198293,0.09355 h 2.174905 l 2.829716,0.04677 2.689399,0.02339 2.736173,0.187089 4.723987,0.327405 5.355415,0.561266 4.607058,0.678197 4.466743,0.77174 4.303038,0.771741 4.77076,1.028988 3.741774,0.888671 0.09354,0.02339 0.04677,0.02339 0.09354,2.104747 0.163703,3.274051 0.07016,3.437755 -0.116933,2.970033 -0.210473,2.970032 -0.257247,2.38538 -0.233862,2.03459 -0.46772,3.203893 -0.608039,2.853102 -0.584652,2.291837 -0.561266,2.245064 -0.42095,1.543481 -0.444336,1.426551 -0.537879,1.543482 -0.818512,2.26845 -0.912059,1.987817 -0.654809,1.473322 -0.654809,1.379781 -1.028989,2.104747 -1.192691,2.31522 -1.239462,2.011204 -1.099145,1.613641 -1.192692,1.917657 -1.403164,1.847501 -1.426552,1.894274 -1.496708,1.941044 -1.169305,1.309621 -2.011204,2.081361 -2.338607,2.291837 -2.057976,2.011203 -2.50231,2.174905 -1.543482,1.309621 -1.73057,1.309621 -2.057975,1.426552 -2.525699,1.707184 -2.408766,1.590251 -1.286233,0.748356 -0.187089,0.09354 -0.07016,0.04677 -0.11693,0.07016 -0.210463,-0.0234 -0.631426,-0.327406 -3.484525,-2.315223 -4.256267,-2.92326 -3.203895,-2.54908 L 43.409661,86.38819 41.21137,84.42376 39.270324,82.552872 37.820388,80.986005 35.458392,78.436921 33.610891,76.121698 31.669847,73.572615 30.032823,71.280778 28.886904,69.573594 27.834529,67.93657 27.016017,66.556791 25.870099,64.381885 24.95804,62.6747 24.092755,60.616726 23.484718,59.307105 22.3388,56.547548 l -0.724969,-2.03459 -0.584652,-1.941044 -0.53788,-1.941047 -0.631424,-2.034587 -0.233861,-1.239465 -0.397563,-1.730568 -0.491108,-2.38538 -0.304019,-1.964433 -0.304019,-2.315221 -0.187089,-1.239462 -0.210475,-2.03459 -0.210474,-3.578072 -0.02339,-2.946646 -0.02339,-2.666013 0.07016,-2.525696 0.140317,-1.73057 z"
         id="path1"
         transform="matrix(1,0,0,1.0408433,3.0160432e-7,0.44213061)" /><text
         xml:space="preserve"
         style="font-weight:bold;font-size:52.0331px;font-family:C059;-inkscape-font-specification:'C059, Bold';text-align:start;writing-mode:lr-tb;direction:ltr;text-anchor:start;display:inline;fill:#ffffff;fill-opacity:0.996078;stroke-width:0.390249;stroke-opacity:0.997746"
         x="52.630447"
         y="66.324043"
         id="text3"
         transform="scale(0.93791649,1.066193)"><tspan
           id="tspan3"
           style="fill:#ffffff;fill-opacity:0.996078;stroke-width:0.390249"
           x="52.630447"
           y="66.324043">i</tspan></text></g></g></svg>
